<?xml version="1.0" encoding="UTF-8"?>
<svg version="1.1" xmlns="http://www.w3.org/2000/svg" width="1024" height="1024">
<path d="M0 0 C337.92 0 675.84 0 1024 0 C1024 337.92 1024 675.84 1024 1024 C686.08 1024 348.16 1024 0 1024 C0 686.08 0 348.16 0 0 Z " fill="none" transform="translate(0,0)"/>
<path d="M0 0 C151.14 0 302.28 0 458 0 C458 11.22 458 22.44 458 34 C306.86 34 155.72 34 0 34 C0 22.78 0 11.56 0 0 Z " fill="#000000" transform="translate(283,169)"/>
<path d="M0 0 C153.78 0 307.56 0 466 0 C466 10.89 466 21.78 466 33 C312.22 33 158.44 33 0 33 C0 22.11 0 11.22 0 0 Z " fill="#000000" transform="translate(279,771)"/>
<path d="M0 0 C10.23 0 20.46 0 31 0 C30.96519531 2.59746094 30.93039062 5.19492188 30.89453125 7.87109375 C30.59092619 36.65775064 32.35930977 63.6685546 40.29296875 91.5 C40.77997375 93.22200664 41.23937843 94.95197895 41.67578125 96.6875 C43.48036193 103.78484525 45.98945066 110.32914247 49 117 C49.50877686 118.13405273 49.50877686 118.13405273 50.02783203 119.29101562 C61.05470459 143.69373661 75.31283055 164.9461488 93 185 C93.46825195 185.53141602 93.93650391 186.06283203 94.41894531 186.61035156 C99.39289201 192.22172292 104.42577975 197.60633555 110.18359375 202.43359375 C111.99932645 203.99941916 113.64942704 205.6490212 115.3125 207.375 C119.05248028 211.18329043 123.1616566 214.47343944 127.31640625 217.81640625 C129.55817936 219.6404982 131.72603587 221.50661257 133.875 223.4375 C138.78261444 227.77654936 144.02902774 231.67935103 149.23388672 235.64990234 C178.9125489 258.33762724 178.9125489 258.33762724 181 269 C181.9120039 276.95387009 180.04827769 282.16119386 175.1171875 288.37109375 C166.18159589 298.63581458 155.96267912 306.9421289 145.06640625 314.98046875 C139.45953197 319.12131933 133.99851638 323.44352441 128.54150391 327.77880859 C127.13038117 328.89671102 125.71202912 330.00547221 124.29296875 331.11328125 C118.84323372 335.39582894 113.6908281 339.92881569 108.59375 344.625 C106.38586577 346.64667712 104.14759058 348.61456522 101.875 350.5625 C94.67181473 356.83766754 88.19089163 363.73954376 82 371 C81.20078125 371.89847656 80.4015625 372.79695313 79.578125 373.72265625 C71.50753868 382.88458567 64.66238281 392.78170256 58 403 C57.57976562 403.64163086 57.15953125 404.28326172 56.7265625 404.94433594 C33.68573629 440.53004152 22.2498454 481.0011726 31 523 C31.65756578 525.00301066 32.32184521 527.00386611 33 529 C33 530.32 33 531.64 33 533 C21.45 533 9.9 533 -2 533 C-2.32139977 502.94912168 -0.45205392 473.4931483 10 445 C10.41523926 443.85917969 10.41523926 443.85917969 10.83886719 442.6953125 C24.00447561 407.05565468 45.68892633 378.14319578 72.375 351.4375 C73.24382812 350.55642578 74.11265625 349.67535156 75.0078125 348.76757812 C81.02170072 342.74034548 87.33372092 337.29036329 94 332 C95.50122588 330.77233084 97.00142179 329.54339969 98.5 328.3125 C107.06772602 321.46926835 116.01586026 315.09559921 124.87255859 308.63378906 C142.32137496 296.12931489 142.32137496 296.12931489 153 278 C153.80233293 269.57550426 151.60305966 263.81753725 146.5 257.125 C138.81777423 247.99801568 129.67948589 240.88817637 120.20288086 233.75561523 C115.34463467 230.08381763 110.76398947 226.23800197 106.30078125 222.08984375 C103.87918417 219.89026066 101.36940281 217.85278116 98.8125 215.8125 C82.29632061 202.40470268 65.81331137 187.00313118 53 170 C52.52530273 169.38527832 52.05060547 168.77055664 51.56152344 168.13720703 C42.32159218 156.12874627 34.86123707 143.4954382 28 130 C27.46270264 128.94619141 27.46270264 128.94619141 26.91455078 127.87109375 C7.03487454 88.37108476 -0.90260773 43.9269097 0 0 Z " fill="#000000" transform="translate(297,221)"/>
<path d="M0 0 C9.57 0 19.14 0 29 0 C29.63901973 26.83882867 27.01900327 53.03019541 20 79 C19.77586426 79.83354004 19.55172852 80.66708008 19.32080078 81.52587891 C14.13625026 100.44564654 7.30731242 118.71999213 -2 136 C-2.52762939 136.99507568 -2.52762939 136.99507568 -3.06591797 138.01025391 C-11.08293842 153.06783974 -20.81869093 166.16155464 -32 179 C-32.56847656 179.680625 -33.13695312 180.36125 -33.72265625 181.0625 C-42.21221995 191.13707176 -51.90660899 200.5458641 -62 209 C-63.06888836 209.91920251 -64.13646804 210.83992783 -65.203125 211.76171875 C-73.45165311 218.88374591 -81.7453225 225.94868676 -90.37109375 232.61328125 C-110.07977274 247.04748527 -110.07977274 247.04748527 -123 267 C-123.80614367 274.45966749 -123.33087309 280.85547852 -118.46484375 286.91015625 C-117.40203878 288.13376387 -116.31740186 289.33891822 -115.20703125 290.51953125 C-114 292 -114 292 -114 294 C-113.44699219 294.23976563 -112.89398437 294.47953125 -112.32421875 294.7265625 C-109.46882283 296.29103152 -107.2680975 298.23457792 -104.8125 300.375 C-99.94700768 304.53524862 -94.88342731 308.28949563 -89.625 311.9375 C-65.63862874 328.62668409 -41.37240679 348.35511738 -23.16015625 371.2890625 C-21.78272561 373.01770059 -20.37631222 374.72390227 -18.93359375 376.3984375 C-11.04310886 385.61126885 -4.52929144 395.79950672 2 406 C2.41701172 406.6487207 2.83402344 407.29744141 3.26367188 407.96582031 C17.85731013 431.00087678 26.07160507 459.19448163 30 486 C30.10530029 486.71639648 30.21060059 487.43279297 30.3190918 488.17089844 C31.39526251 496.94249142 31.10834044 505.80460833 31.0625 514.625 C31.05747477 516.31380076 31.05291368 518.00260296 31.04882812 519.69140625 C31.03876205 523.7943365 31.01917261 527.89706223 31 532 C19.78 532 8.56 532 -3 532 C-2.35233586 526.81868685 -1.6374064 522.4619318 -0.4375 517.5 C7.90972368 477.01823203 -5.96882447 436.53625419 -27.76904297 402.78979492 C-35.66025071 390.80815142 -44.62345354 379.84213792 -54 369 C-54.52190918 368.38906494 -55.04381836 367.77812988 -55.58154297 367.14868164 C-60.09818045 361.90775105 -64.85628142 356.95152862 -69.75 352.0625 C-70.54204834 351.27053223 -71.33409668 350.47856445 -72.15014648 349.66259766 C-77.10755837 344.75323741 -82.12802527 340.16630219 -87.62890625 335.87109375 C-90.0187838 333.9851772 -92.25517475 331.99295511 -94.5 329.9375 C-98.38409952 326.44931923 -102.47682491 323.41775403 -106.72265625 320.38671875 C-113.98383956 315.15105959 -120.98265074 309.55513832 -128 304 C-128.64388672 303.49500977 -129.28777344 302.99001953 -129.95117188 302.46972656 C-139.94237551 294.59183995 -150.17125641 285.28668269 -152.5 272.1875 C-150.17615699 257.37300078 -137.09551129 247.98000859 -125.94287109 239.49902344 C-122.49182838 236.83636922 -119.12432153 234.07128158 -115.75 231.3125 C-111.39871106 227.76024809 -107.03624596 224.22783185 -102.625 220.75 C-98.38222145 217.36859092 -94.35275298 213.78734855 -90.34765625 210.12890625 C-88.36741196 208.33317723 -86.3543465 206.59932394 -84.3125 204.875 C-74.93213776 196.70068433 -65.87022245 187.64016331 -58 178 C-57.57686523 177.49065918 -57.15373047 176.98131836 -56.71777344 176.45654297 C-43.66335084 160.71444513 -33.48487939 144.11126808 -24 126 C-23.62077393 125.28247559 -23.24154785 124.56495117 -22.85083008 123.82568359 C-20.59924213 119.46807769 -18.92568146 115.17573844 -17.4375 110.5 C-16.20568065 106.65510813 -14.95658281 102.84285991 -13.5 99.078125 C-1.4854132 67.39668987 -0.7439189 33.39804346 0 0 Z " fill="#000000" transform="translate(698,222)"/>
<path d="M0 0 C6.80927603 0 12.72824457 0.20145662 19.3125 1.375 C20.08400391 1.50132812 20.85550781 1.62765625 21.65039062 1.7578125 C25.68940615 2.45120572 29.21356737 3.39188733 33 5 C34.86881977 5.46318885 36.74447516 5.89939279 38.625 6.3125 C44.84892119 7.84197942 50.27264819 10.16205674 56 13 C57.27431902 13.60765358 58.54908734 14.21436552 59.82421875 14.8203125 C76.4673047 22.8227932 90.50505816 33.4418971 104 46 C104.66644531 46.61230469 105.33289063 47.22460938 106.01953125 47.85546875 C121.45426934 62.59862998 138.5908411 86.31848425 139.3125 108.5 C139.34988281 109.2528125 139.38726563 110.005625 139.42578125 110.78125 C138.79513264 114.0675657 137.69694291 115.0078719 135 117 C131.88256551 117.58592795 128.80500726 117.50506638 125.64160156 117.45410156 C124.22158089 117.45497772 124.22158089 117.45497772 122.77287292 117.45587158 C119.64508342 117.4530858 116.51824794 117.42196987 113.390625 117.390625 C111.22158326 117.38316439 109.05253478 117.37747061 106.88348389 117.37347412 C101.17540874 117.35820376 95.46774091 117.31890946 89.75982666 117.2746582 C82.9108268 117.22654072 76.06169072 117.2081782 69.21257019 117.18484497 C58.80809686 117.14605974 48.40451721 117.06941487 38 117 C38 93.9 38 70.8 38 47 C44.49629622 49.16543207 49.37224584 51.07571848 54.9375 54.6875 C55.97716919 55.3527771 55.97716919 55.3527771 57.0378418 56.03149414 C67.0999681 62.55938799 75.86907535 70.20437999 84 79 C84 79.33 84 79.66 84 80 C75.75 80 67.5 80 59 80 C59 85.94 59 91.88 59 98 C77.15 98 95.3 98 114 98 C99.45754996 65.27948741 74.50707477 41.92541198 41 29 C34.42725676 26.57797863 27.87985366 24.37597073 21 23 C21 59.63 21 96.26 21 134 C56.31 134 91.62 134 128 134 C126.30526712 138.23683221 124.36768288 141.8166991 121.9375 145.625 C119.07183463 150.10772343 119.07183463 150.10772343 117 155 C78.39 155 39.78 155 0 155 C0 103.85 0 52.7 0 0 Z " fill="#000000" transform="translate(523,222)"/>
<path d="M0 0 C7.9377883 -0.09354296 15.87533834 -0.1641848 23.81354523 -0.20724869 C27.50138608 -0.22793903 31.18884418 -0.25590653 34.87646484 -0.30175781 C66.36748905 -0.68282752 66.36748905 -0.68282752 79 4 C79.6305278 4.23353683 80.2610556 4.46707367 80.91069031 4.70768738 C94.94004929 9.96740237 105.55665917 18.43958136 116 29 C116.60585938 28.28714844 117.21171875 27.57429688 117.8359375 26.83984375 C126.56796882 16.85846025 135.8909562 10.53942311 148 5 C149.03060547 4.52046875 149.03060547 4.52046875 150.08203125 4.03125 C160.65619798 -0.42103073 172.56482657 -0.28553711 183.83203125 -0.1953125 C185.20350434 -0.19156977 186.57498016 -0.18872878 187.94645691 -0.18673706 C191.50887796 -0.17919957 195.07112883 -0.15963967 198.63348389 -0.1373291 C202.28753357 -0.11665411 205.94161148 -0.10768966 209.59570312 -0.09765625 C216.73053723 -0.07638148 223.86525734 -0.04236949 231 0 C227.06932866 8.2791317 218.96404083 14.00024585 211.9453125 19.62109375 C209.34461947 21.72165351 206.79506028 23.86521855 204.25683594 26.03979492 C197.87723394 31.50407102 191.32799958 36.68973724 184.63378906 41.76171875 C173.20740924 50.42199945 161.94811879 59.21025883 151.34375 68.875 C149.19307289 70.82494724 147.01175029 72.73026129 144.8125 74.625 C143.53789707 75.74572732 142.26693062 76.87060673 141 78 C140.39285156 78.54011719 139.78570313 79.08023438 139.16015625 79.63671875 C124.60494248 93.30014699 118.62050055 117.88637641 117.875 137.24609375 C117.75033428 144.48449719 118.29465894 150.96546812 120 158 C116.7 158 113.4 158 110 158 C110.48339844 156.57494141 110.48339844 156.57494141 110.9765625 155.12109375 C112.30202895 150.44677179 112.38384535 145.89692592 112.375 141.0625 C112.37338867 140.13735596 112.37177734 139.21221191 112.37011719 138.2590332 C112.23119872 130.36723853 110.84519878 123.48231308 108.56005859 115.94580078 C107.77636868 113.223042 107.16871329 110.46801049 106.54370117 107.70532227 C101.08452752 84.10429809 82.42378995 69.69206088 63.97167969 55.51708984 C60.30231006 52.69372891 56.65323351 49.8441876 53 47 C51.4636193 45.80458772 49.92716186 44.60927405 48.390625 43.4140625 C47.64876953 42.83688477 46.90691406 42.25970703 46.14257812 41.66503906 C44.17514581 40.13610921 42.20497444 38.61078102 40.234375 37.0859375 C32.45490209 31.04550675 24.91969917 24.76485167 17.4921875 18.296875 C16.20853734 17.18124187 14.91747062 16.07415251 13.625 14.96875 C8.88747619 10.89744048 4.08982339 6.73157759 0 2 C0 1.34 0 0.68 0 0 Z " fill="#000000" transform="translate(397,391)"/>
<path d="M0 0 C0 50.82 0 101.64 0 154 C-18.975 154.268125 -37.95 154.53625 -57.5 154.8125 C-63.48318359 154.93085205 -69.46636719 155.0492041 -75.63085938 155.17114258 C-82.95800781 155.2298584 -82.95800781 155.2298584 -86.39221191 155.24076843 C-88.78218066 155.26068484 -91.17202153 155.30631682 -93.56115723 155.3724823 C-113.18586544 155.88863187 -113.18586544 155.88863187 -117.84963989 152.75866318 C-121.13160739 149.35081751 -122.63292168 145.51143573 -124 141 C-124.66 139.02 -125.32 137.04 -126 135 C-91.02 135 -56.04 135 -20 135 C-20 97.71 -20 60.42 -20 22 C-44.91895671 30.3063189 -64.85631899 38.39149391 -83.7109375 55.921875 C-86 58 -86 58 -88.40234375 59.79296875 C-91.83345247 62.70812127 -94.44634274 66.00595617 -97.1875 69.5625 C-97.70119141 70.19607422 -98.21488281 70.82964844 -98.74414062 71.48242188 C-105.1783787 79.80403646 -108.92100527 88.34991001 -114 98 C-95.52 98 -77.04 98 -58 98 C-58 92.06 -58 86.12 -58 80 C-66.25 80 -74.5 80 -83 80 C-74.74620276 67.61930414 -62.67849757 59.78717549 -50.1875 52.125 C-49.55295898 51.73111084 -48.91841797 51.33722168 -48.26464844 50.93139648 C-44.66609431 48.76626959 -42.2227384 47.84454768 -38 47 C-38 70.1 -38 93.2 -38 117 C-62.04745946 117.16043524 -62.04745946 117.16043524 -72.28515625 117.1953125 C-79.27535114 117.21923901 -86.26533678 117.24756677 -93.25537109 117.30175781 C-98.88988287 117.34516745 -104.5241703 117.36912708 -110.15883636 117.37950897 C-112.31028527 117.38690907 -114.46172167 117.40135947 -116.61307526 117.42292023 C-119.62285553 117.45188886 -122.63170468 117.45595868 -125.64160156 117.45410156 C-126.5342421 117.46848267 -127.42688263 117.48286377 -128.34657288 117.49768066 C-134.35536772 117.45746958 -134.35536772 117.45746958 -137.56341553 115.18084717 C-140.17372754 111.21819013 -139.24017299 107.28776966 -138.40625 102.81640625 C-129.43575766 70.60769885 -106.48730962 44.17580381 -79 26 C-77.97648437 25.31421875 -76.95296875 24.6284375 -75.8984375 23.921875 C-59.07949134 13.10665392 -40.84053947 5.58726016 -21.25 1.6875 C-20.39873535 1.51565186 -19.5474707 1.34380371 -18.67041016 1.16674805 C-12.17989616 -0.03276308 -6.82229889 0 0 0 Z " fill="#000000" transform="translate(501,222)"/>
<path d="M0 0 C23.29404486 0 46.07271374 12.37368726 65 25 C66.55460938 26.03447266 66.55460938 26.03447266 68.140625 27.08984375 C74.76327147 31.71623535 80.70532547 37.02933197 86.53125 42.60302734 C87.93227582 43.93558548 89.35626388 45.24387685 90.78125 46.55078125 C101.86612301 57.04637222 111.18028567 70.33655827 118 84 C118 84.66 118 85.32 118 86 C90.28 86 62.56 86 34 86 C34 72.14 34 58.28 34 44 C43.70021149 47.23340383 52.66317306 52.83379694 60 60 C60 60.66 60 61.32 60 62 C57.03 62 54.06 62 51 62 C51 64.31 51 66.62 51 69 C61.89 68.67 72.78 68.34 84 68 C65.20940326 47.50116719 45.50490584 32.83496861 19 24 C19 49.41 19 74.82 19 101 C60.58 101 102.16 101 145 101 C148 108 148 108 148 118 C99.16 118 50.32 118 0 118 C0 79.06 0 40.12 0 0 Z " fill="#000000" transform="translate(522,570)"/>
<path d="M0 0 C0 38.94 0 77.88 0 118 C-48.84 118 -97.68 118 -148 118 C-147 106 -147 106 -145 101 C-103.09 101 -61.18 101 -18 101 C-18 75.26 -18 49.52 -18 23 C-31.7467829 28.49606993 -31.7467829 28.49606993 -44.6875 35.25 C-45.47801758 35.71760742 -46.26853516 36.18521484 -47.08300781 36.66699219 C-59.46437306 44.1479223 -77.39531753 55.79063506 -84 69 C-72.78 69 -61.56 69 -50 69 C-50 66.69 -50 64.38 -50 62 C-52.64 62 -55.28 62 -58 62 C-58 59 -58 59 -56.671875 57.421875 C-49.70733932 51.36329518 -42.14879883 45.82975977 -33 44 C-33 57.86 -33 71.72 -33 86 C-60.72 86 -88.44 86 -117 86 C-115.3708958 81.1126874 -113.5704239 77.14997255 -110.9375 72.8125 C-110.54046875 72.15612549 -110.1434375 71.49975098 -109.734375 70.82348633 C-105.99275768 64.7706531 -101.70022553 59.34116537 -97 54 C-96.30390625 53.18273437 -95.6078125 52.36546875 -94.890625 51.5234375 C-74.13544451 27.66255483 -46.78284234 10.7829322 -16.4375 2.0625 C-15.71191895 1.85077148 -14.98633789 1.63904297 -14.23876953 1.42089844 C-13.53993652 1.23172852 -12.84110352 1.04255859 -12.12109375 0.84765625 C-11.21508423 0.6002771 -11.21508423 0.6002771 -10.29077148 0.34790039 C-6.89746423 -0.16744255 -3.43221685 0 0 Z " fill="#000000" transform="translate(502,570)"/>
<path d="M0 0 C5.94 0 11.88 0 18 0 C19 1 19 1 19.11352539 4.60180664 C19.11336625 6.20459856 19.10767063 7.8073956 19.09765625 9.41015625 C19.0962413 10.25219101 19.09482635 11.09422577 19.09336853 11.96177673 C19.08775263 14.66205335 19.07519748 17.36224828 19.0625 20.0625 C19.05748705 21.88867068 19.05292379 23.71484266 19.04882812 25.54101562 C19.03777804 30.02737542 19.02050279 34.51367384 19 39 C22.33430384 38.71882633 25.66717292 38.42313006 29 38.125 C29.93457031 38.04636719 30.86914062 37.96773437 31.83203125 37.88671875 C48.26689437 36.39264028 61.24889328 30.75110672 73 19 C60.46 18.67 47.92 18.34 35 18 C35 12.39 35 6.78 35 1 C59.09 1 83.18 1 108 1 C103.58247501 14.25257496 96.66496993 24.06814727 87 34 C86.195625 34.86625 85.39125 35.7325 84.5625 36.625 C80.57092374 40.3245097 76.29531346 43.66152873 72 47 C71.42856262 47.52648636 70.85712524 48.05297272 70.26837158 48.59541321 C67.17033497 50.51373265 64.93414961 50.36074528 61.30371094 50.34057617 C60.63988403 50.34101425 59.97605713 50.34145233 59.29211426 50.34190369 C57.10589818 50.33981971 54.9204565 50.31650855 52.734375 50.29296875 C51.2155194 50.28737137 49.69665837 50.28310194 48.17779541 50.28010559 C44.18608568 50.2686679 40.194705 50.23921027 36.203125 50.20599365 C31.41072387 50.16986463 26.61821254 50.15612646 21.82571411 50.13863373 C14.55024743 50.10957195 7.27550232 50.05207809 0 50 C0 33.5 0 17 0 0 Z " fill="#000000" transform="translate(522,704)"/>
<path d="M0 0 C5.94 0 11.88 0 18 0 C18 16.5 18 33 18 50 C1.76038875 50.36097928 1.76038875 50.36097928 -5.23046875 50.43945312 C-9.97766091 50.49299639 -14.72327236 50.55591197 -19.46923828 50.67895508 C-23.3014259 50.77767141 -27.13191653 50.83074517 -30.96527863 50.85389519 C-32.41816142 50.87036315 -33.87096454 50.90252002 -35.32311249 50.95157051 C-46.77868116 51.32267316 -52.699479 48.62958671 -61 41 C-62.14543813 40.06532263 -63.29326006 39.13354378 -64.4453125 38.20703125 C-75.06664096 28.71596078 -83.71264255 17.34735356 -89 4 C-89 3.01 -89 2.02 -89 1 C-64.58 1 -40.16 1 -15 1 C-15 6.61 -15 12.22 -15 18 C-27.87 18.33 -40.74 18.66 -54 19 C-36.22740786 34.79785968 -23.83081266 37.59818749 0 39 C0 26.13 0 13.26 0 0 Z " fill="#000000" transform="translate(484,704)"/>
<path d="M0 0 C7.92 0 15.84 0 24 0 C25.4540625 3.2484375 25.4540625 3.2484375 26.9375 6.5625 C32.63735508 18.87353603 39.04115874 29.64846658 48.51953125 39.4140625 C50.84819781 41.84174322 52.91273829 44.36576195 55 47 C55.9906053 48.00930726 56.98891112 49.01121323 58 50 C35.18682842 52.06430091 35.18682842 52.06430091 29.0546875 47.85546875 C26.39686635 45.47576241 24.28051069 42.75341261 22.26074219 39.82226562 C20.95942234 37.94134941 19.56711643 36.17173651 18.1328125 34.390625 C9.89419616 23.95347425 3.24303595 12.97214381 0 0 Z " fill="#000000" transform="translate(355,704)"/>
<path d="M0 0 C7.92 0 15.84 0 24 0 C22.92037016 5.39814919 21.05153011 9.2547404 18.5 14.0625 C18.05148682 14.90868896 17.60297363 15.75487793 17.14086914 16.62670898 C11.63965187 26.78377076 4.81104812 35.38596977 -3.0546875 43.84375 C-5.02615244 45.88880464 -5.02615244 45.88880464 -6.26147461 48.11035156 C-8 50 -8 50 -10.63549805 50.45410156 C-11.66715088 50.4331543 -12.69880371 50.41220703 -13.76171875 50.390625 C-14.87998047 50.37773438 -15.99824219 50.36484375 -17.15039062 50.3515625 C-18.31763672 50.31804688 -19.48488281 50.28453125 -20.6875 50.25 C-21.86634766 50.23195313 -23.04519531 50.21390625 -24.25976562 50.1953125 C-27.17398926 50.14811859 -30.08659031 50.08229077 -33 50 C-29.80150645 45.62477176 -26.60705121 41.4451259 -22.8125 37.5625 C-13.9066169 27.79767386 -7.00300154 16.19346263 -2 4 C-1.34 2.68 -0.68 1.36 0 0 Z " fill="#000000" transform="translate(646,704)"/>
</svg>
