<?xml version="1.0" encoding="UTF-8"?>
<svg version="1.1" xmlns="http://www.w3.org/2000/svg" width="1112" height="508">
<path d="M0 0 C366.96 0 733.92 0 1112 0 C1112 167.64 1112 335.28 1112 508 C745.04 508 378.08 508 0 508 C0 340.36 0 172.72 0 0 Z " fill="none" transform="translate(0,0)"/>
<path d="M0 0 C21.45 0 42.9 0 65 0 C65.495 6.93 65.495 6.93 66 14 C66.99 14.33 67.98 14.66 69 15 C69.495 20.445 69.495 20.445 70 26 C70.99 26 71.98 26 73 26 C73.17390259 26.93851807 73.17390259 26.93851807 73.35131836 27.89599609 C73.87693387 30.72291967 74.40715861 33.54895938 74.9375 36.375 C75.11990234 37.35984375 75.30230469 38.3446875 75.49023438 39.359375 C75.66748047 40.30039063 75.84472656 41.24140625 76.02734375 42.2109375 C76.27085571 43.51490479 76.27085571 43.51490479 76.51928711 44.84521484 C76.9165899 47.03462366 76.9165899 47.03462366 78 49 C78.04022391 51.3329866 78.04320247 53.66706666 78 56 C73.71 56 69.42 56 65 56 C65 53.03 65 50.06 65 47 C64.34 47 63.68 47 63 47 C62.80664062 46.34773438 62.61328125 45.69546875 62.4140625 45.0234375 C61.28251603 41.22547459 60.14956343 37.44038122 58.875 33.6875 C57.32949939 28.94060527 56.882649 24.67894068 56.9375 19.6875 C56.94652344 18.61886719 56.95554687 17.55023438 56.96484375 16.44921875 C56.97644531 15.64097656 56.98804688 14.83273438 57 14 C53.37 14 49.74 14 46 14 C46 26.87 46 39.74 46 53 C48.97 53 51.94 53 55 53 C56 54 56 54 56.09765625 56.94140625 C56.08605469 58.13636719 56.07445312 59.33132812 56.0625 60.5625 C56.05347656 61.76003906 56.04445313 62.95757812 56.03515625 64.19140625 C56.02355469 65.11824219 56.01195312 66.04507813 56 67 C59.3 67 62.6 67 66 67 C66 72.61 66 78.22 66 84 C67.98 84 69.96 84 72 84 C72 91.26 72 98.52 72 106 C66.39 106 60.78 106 55 106 C55 109.63 55 113.26 55 117 C50.38 117 45.76 117 41 117 C41 140.1 41 163.2 41 187 C45.95 187 50.9 187 56 187 C56 191.62 56 196.24 56 201 C41.15 201 26.3 201 11 201 C11 196.05 11 191.1 11 186 C15.95 186 20.9 186 26 186 C26 163.56 26 141.12 26 118 C21.05 118 16.1 118 11 118 C11 114.04 11 110.08 11 106 C5.72 106 0.44 106 -5 106 C-5 98.74 -5 91.48 -5 84 C-2.525 83.505 -2.525 83.505 0 83 C0 78.05 0 73.1 0 68 C3.63 68 7.26 68 11 68 C11 63.05 11 58.1 11 53 C14.3 53 17.6 53 21 53 C21 40.46 21 27.92 21 15 C17.04 15 13.08 15 9 15 C9.0309375 16.134375 9.061875 17.26875 9.09375 18.4375 C9.09375 23.07926489 8.37471577 27.45305409 7.5 32 C7.28537109 33.16208984 7.28537109 33.16208984 7.06640625 34.34765625 C6.71727671 36.23295579 6.35954684 38.11665939 6 40 C5.34 40 4.68 40 4 40 C3.93941406 41.04800781 3.87882812 42.09601563 3.81640625 43.17578125 C3.73198262 44.55470048 3.64733553 45.93360605 3.5625 47.3125 C3.50352539 48.34793945 3.50352539 48.34793945 3.44335938 49.40429688 C3.25072585 52.47161535 2.97677283 55.06968152 2 58 C-2.62 58 -7.24 58 -12 58 C-11.17770405 45.99447918 -9.15538028 34.31542015 -5 23 C-4.43284056 21.3140603 -3.87028414 19.62656464 -3.3125 17.9375 C-2.875 16.625 -2.4375 15.3125 -2 14 C-1.34 14 -0.68 14 0 14 C0 9.38 0 4.76 0 0 Z " fill="#0D0D0D" transform="translate(459,165)"/>
<path d="M0 0 C22.77 0 45.54 0 69 0 C69 6.93 69 13.86 69 21 C49.86 21 30.72 21 11 21 C11 27.93 11 34.86 11 42 C26.51 42 42.02 42 58 42 C58 48.6 58 55.2 58 62 C42.49 62 26.98 62 11 62 C11 69.26 11 76.52 11 84 C13.62763306 83.99214478 13.62763306 83.99214478 16.30834961 83.98413086 C22.08388501 83.96803238 27.85941963 83.95652733 33.63497066 83.94818783 C37.13808885 83.94296011 40.64118285 83.9358645 44.14428711 83.92456055 C48.16780841 83.91165794 52.19130414 83.90677088 56.21484375 83.90234375 C57.47836166 83.89718246 58.74187958 83.89202118 60.04368591 83.88670349 C61.204814 83.88662796 62.36594208 83.88655243 63.56225586 83.88647461 C65.1044706 83.88314369 65.1044706 83.88314369 66.67784119 83.87974548 C69 84 69 84 70 85 C70 91.6 70 98.2 70 105 C42.94 105 15.88 105 -12 105 C-12 74.64 -12 44.28 -12 13 C-6.555 12.505 -6.555 12.505 -1 12 C-0.67 8.04 -0.34 4.08 0 0 Z " fill="#0C0C0C" transform="translate(942,178)"/>
<path d="M0 0 C22.77 0 45.54 0 69 0 C69 6.93 69 13.86 69 21 C49.86 21 30.72 21 11 21 C11 27.93 11 34.86 11 42 C26.84 42 42.68 42 59 42 C59 48.6 59 55.2 59 62 C58 63 58 63 56.09544373 63.12025452 C55.26271439 63.11803391 54.42998505 63.11581329 53.57202148 63.11352539 C52.63112167 63.11344986 51.69022186 63.11337433 50.72080994 63.11329651 C49.69790359 63.10813522 48.67499725 63.10297394 47.62109375 63.09765625 C46.57929459 63.0962413 45.53749542 63.09482635 44.46412659 63.09336853 C41.12188906 63.0877508 37.77971743 63.0751953 34.4375 63.0625 C32.17773534 63.05748728 29.91796963 63.05292398 27.65820312 63.04882812 C22.10542266 63.03862456 16.55278548 63.01905264 11 63 C11 69.93 11 76.86 11 84 C30.47 84 49.94 84 70 84 C70 90.93 70 97.86 70 105 C43.27 105 16.54 105 -11 105 C-11 74.31 -11 43.62 -11 12 C-7.37 12 -3.74 12 0 12 C0 8.04 0 4.08 0 0 Z " fill="#0B0B0B" transform="translate(662,178)"/>
<path d="M0 0 C7.26 0 14.52 0 22 0 C22 13.53 22 27.06 22 41 C34.87 41 47.74 41 61 41 C61 27.47 61 13.94 61 0 C68.26 0 75.52 0 83 0 C83 34.65 83 69.3 83 105 C75.74 105 68.48 105 61 105 C61 90.81 61 76.62 61 62 C48.13 62 35.26 62 22 62 C22 76.19 22 90.38 22 105 C14.74 105 7.48 105 0 105 C0 70.35 0 35.7 0 0 Z " fill="#0C0C0C" transform="translate(351,178)"/>
<path d="M0 0 C21.78 0 43.56 0 66 0 C66 10 66 10 65 21 C45.53 21 26.06 21 6 21 C6 27.93 6 34.86 6 42 C21.84 42 37.68 42 54 42 C54 45.3 54 48.6 54 52 C58.62 52 63.24 52 68 52 C68 64.87 68 77.74 68 91 C63.71 91.33 59.42 91.66 55 92 C54.67 96.29 54.34 100.58 54 105 C31.56 105 9.12 105 -14 105 C-14 98.07 -14 91.14 -14 84 C5.47 84 24.94 84 45 84 C45 77.07 45 70.14 45 63 C30.15 63 15.3 63 0 63 C0 58.05 0 53.1 0 48 C-4.95 48 -9.9 48 -15 48 C-15 36.45 -15 24.9 -15 13 C-10.05 13 -5.1 13 0 13 C0 8.71 0 4.42 0 0 Z " fill="#0D0D0D" transform="translate(108,178)"/>
<path d="M0 0 C7.26 0 14.52 0 22 0 C22 28.05 22 56.1 22 85 C34.87 84.67 47.74 84.34 61 84 C61.33 56.28 61.66 28.56 62 0 C68.93 0 75.86 0 83 0 C83 30.03 83 60.06 83 91 C77.72 91 72.44 91 67 91 C67 95.62 67 100.24 67 105 C50.5 105 34 105 17 105 C17 100.05 17 95.1 17 90 C11.39 90 5.78 90 0 90 C0 60.3 0 30.6 0 0 Z " fill="#090909" transform="translate(550,178)"/>
<path d="M0 0 C3.96 0 7.92 0 12 0 C12.33 4.95 12.66 9.9 13 15 C16.96 15 20.92 15 25 15 C25 19.29 25 23.58 25 28 C30.28 28 35.56 28 41 28 C41 23.38 41 18.76 41 14 C47.435 13.505 47.435 13.505 54 13 C54.495 6.565 54.495 6.565 55 0 C58.63 0 62.26 0 66 0 C66 5.28 66 10.56 66 16 C67.98 16 69.96 16 72 16 C72 23.26 72 30.52 72 38 C66.39 38 60.78 38 55 38 C55 41.63 55 45.26 55 49 C50.38 49 45.76 49 41 49 C41 72.1 41 95.2 41 119 C45.95 119 50.9 119 56 119 C56 123.62 56 128.24 56 133 C41.15 133 26.3 133 11 133 C11 128.05 11 123.1 11 118 C15.95 118 20.9 118 26 118 C26 95.56 26 73.12 26 50 C21.05 50 16.1 50 11 50 C11 46.04 11 42.08 11 38 C5.72 38 0.44 38 -5 38 C-5 30.74 -5 23.48 -5 16 C-3.35 15.67 -1.7 15.34 0 15 C0 10.05 0 5.1 0 0 Z " fill="#080908" transform="translate(459,233)"/>
<path d="M0 0 C25.41 0 50.82 0 77 0 C77 6.6 77 13.2 77 20 C76.505 20.495 76.505 20.495 76 21 C67.75 21 59.5 21 51 21 C51 48.72 51 76.44 51 105 C43.41 105 35.82 105 28 105 C28 77.28 28 49.56 28 21 C18.76 21 9.52 21 0 21 C0 14.07 0 7.14 0 0 Z " fill="#020303" transform="translate(746,178)"/>
<path d="M0 0 C16.83 0 33.66 0 51 0 C51 6.6 51 13.2 51 20 C46.38 20.33 41.76 20.66 37 21 C36.67 42.12 36.34 63.24 36 85 C40.95 85 45.9 85 51 85 C51 91.6 51 98.2 51 105 C33.84 105 16.68 105 -1 105 C-1 85 -1 85 0 84 C4.95 84 9.9 84 15 84 C15 63.21 15 42.42 15 21 C10.05 21 5.1 21 0 21 C0 14.07 0 7.14 0 0 Z " fill="#0A0A0A" transform="translate(192,178)"/>
<path d="M0 0 C25.08 0 50.16 0 76 0 C76 6.6 76 13.2 76 20 C75.505 20.495 75.505 20.495 75 21 C66.42 21 57.84 21 49 21 C49 48.72 49 76.44 49 105 C41.74 105 34.48 105 27 105 C27 77.28 27 49.56 27 21 C18.09 21 9.18 21 0 21 C0 14.07 0 7.14 0 0 Z " fill="#090909" transform="translate(839,178)"/>
<path d="M0 0 C6.93 0 13.86 0 21 0 C21 27.72 21 55.44 21 84 C38.82 84 56.64 84 75 84 C75 90.93 75 97.86 75 105 C50.25 105 25.5 105 0 105 C0 70.35 0 35.7 0 0 Z " fill="#070707" transform="translate(260,178)"/>
<path d="M0 0 C25.41 0 50.82 0 77 0 C77 6.6 77 13.2 77 20 C76.505 20.495 76.505 20.495 76 21 C67.75 21 59.5 21 51 21 C51 48.72 51 76.44 51 105 C43.41 105 35.82 105 28 105 C28 77.28 28 49.56 28 21 C18.76 21 9.52 21 0 21 C0 14.07 0 7.14 0 0 Z M1 1 C1 7.27 1 13.54 1 20 C14.365 20.495 14.365 20.495 28 21 C28.33 48.39 28.66 75.78 29 104 C35.6 104 42.2 104 49 104 C49.33 75.95 49.66 47.9 50 19 C58.25 19 66.5 19 75 19 C75 13.06 75 7.12 75 1 C50.58 1 26.16 1 1 1 Z " fill="#747474" transform="translate(746,178)"/>
<path d="M0 0 C4.29 0 8.58 0 13 0 C13 4.62 13 9.24 13 14 C8.71 14 4.42 14 0 14 C0 18.29 0 22.58 0 27 C-4.95 27 -9.9 27 -15 27 C-15 22.71 -15 18.42 -15 14 C-10.38 13.67 -5.76 13.34 -1 13 C-0.67 8.71 -0.34 4.42 0 0 Z " fill="#F3F3F2" transform="translate(500,233)"/>
<path d="M0 0 C0.33 0 0.66 0 1 0 C1 27.39 1 54.78 1 83 C13.21 83 25.42 83 38 83 C38 55.61 38 28.22 38 0 C38.66 0 39.32 0 40 0 C40.02312297 10.93496471 40.04091485 21.86992366 40.05181217 32.8049078 C40.0570411 37.88191018 40.06413892 42.95889589 40.07543945 48.03588867 C40.08626799 52.93120552 40.09227676 57.82650629 40.09487724 62.72183418 C40.09673155 64.59382951 40.10035228 66.46582391 40.10573006 68.33781242 C40.11294004 70.95040699 40.11399096 73.56293427 40.11352539 76.17553711 C40.11712067 76.95740387 40.12071594 77.73927063 40.12442017 78.54483032 C40.11405216 83.88594784 40.11405216 83.88594784 39 85 C26.13 85 13.26 85 0 85 C0 56.95 0 28.9 0 0 Z " fill="#BBBBBA" transform="translate(572,178)"/>
<path d="M0 0 C4.95 0 9.9 0 15 0 C15 5.28 15 10.56 15 16 C10.05 16 5.1 16 0 16 C0 10.72 0 5.44 0 0 Z " fill="#141514" transform="translate(485,137)"/>
<path d="M0 0 C25.41 0 50.82 0 77 0 C77 6.6 77 13.2 77 20 C76 21 76 21 73.49975586 21.11352539 C72.41573486 21.10828857 71.33171387 21.10305176 70.21484375 21.09765625 C69.04501953 21.09443359 67.87519531 21.09121094 66.66992188 21.08789062 C65.43822266 21.07951172 64.20652344 21.07113281 62.9375 21.0625 C61.08415039 21.05573242 61.08415039 21.05573242 59.19335938 21.04882812 C56.12885883 21.03699608 53.06445279 21.02051173 50 21 C50 20.34 50 19.68 50 19 C58.25 19 66.5 19 75 19 C75 13.06 75 7.12 75 1 C50.58 1 26.16 1 1 1 C1 7.27 1 13.54 1 20 C9.91 20 18.82 20 28 20 C28 20.33 28 20.66 28 21 C18.76 21 9.52 21 0 21 C0 14.07 0 7.14 0 0 Z " fill="#4F4F4F" transform="translate(746,178)"/>
<path d="M0 0 C4.62 0 9.24 0 14 0 C14 4.62 14 9.24 14 14 C9.38 14 4.76 14 0 14 C0 9.38 0 4.76 0 0 Z " fill="#F6F6F5" transform="translate(486,219)"/>
<path d="M0 0 C4.62 0 9.24 0 14 0 C14 4.29 14 8.58 14 13 C9.38 13 4.76 13 0 13 C0 8.71 0 4.42 0 0 Z " fill="#0C0C0C" transform="translate(486,233)"/>
<path d="M0 0 C3.96 0 7.92 0 12 0 C12 4.62 12 9.24 12 14 C8.04 14 4.08 14 0 14 C0 9.38 0 4.76 0 0 Z " fill="#F5F5F4" transform="translate(473,233)"/>
<path d="M0 0 C25.08 0 50.16 0 76 0 C76 6.6 76 13.2 76 20 C75 21 75 21 72.49975586 21.11352539 C71.41573486 21.10828857 70.33171387 21.10305176 69.21484375 21.09765625 C68.04501953 21.09443359 66.87519531 21.09121094 65.66992188 21.08789062 C64.43822266 21.07951172 63.20652344 21.07113281 61.9375 21.0625 C60.08415039 21.05573242 60.08415039 21.05573242 58.19335938 21.04882812 C55.12885883 21.03699608 52.06445279 21.02051173 49 21 C49 20.34 49 19.68 49 19 C57.25 19 65.5 19 74 19 C74 13.06 74 7.12 74 1 C49.58 1 25.16 1 0 1 C0 0.67 0 0.34 0 0 Z " fill="#454544" transform="translate(839,178)"/>
<path d="M0 0 C3.3 0 6.6 0 10 0 C10.125 9.625 10.125 9.625 9 13 C5.04 13 1.08 13 -3 13 C-3 9.7 -3 6.4 -3 3 C-2.01 2.67 -1.02 2.34 0 2 C0 1.34 0 0.68 0 0 Z " fill="#070706" transform="translate(504,219)"/>
<path d="M0 0 C2.97 0 5.94 0 9 0 C9 0.33 9 0.66 9 1 C6.36 1 3.72 1 1 1 C1.33 4.96 1.66 8.92 2 13 C6.29 13.33 10.58 13.66 15 14 C15 9.71 15 5.42 15 1 C15.33 1 15.66 1 16 1 C16 9.91 16 18.82 16 28 C20.29 28 24.58 28 29 28 C29 28.33 29 28.66 29 29 C24.38 29 19.76 29 15 29 C15 33.29 15 37.58 15 42 C19.95 42 24.9 42 30 42 C30 42.33 30 42.66 30 43 C24.72 43 19.44 43 14 43 C14 38.71 14 34.42 14 30 C10.04 30 6.08 30 2 30 C-2.01427635 21.9714473 -0.11080281 8.90115888 0 0 Z M3 15 C3 19.62 3 24.24 3 29 C6.96 29 10.92 29 15 29 C15 24.38 15 19.76 15 15 C11.04 15 7.08 15 3 15 Z " fill="#7B7B7B" transform="translate(470,218)"/>
<path d="M0 0 C3.96 0 7.92 0 12 0 C12 3.96 12 7.92 12 12 C8.04 12 4.08 12 0 12 C0 8.04 0 4.08 0 0 Z " fill="#FEFEFD" transform="translate(501,234)"/>
<path d="M0 0 C0.33 0 0.66 0 1 0 C1 4.29 1 8.58 1 13 C4.96 13 8.92 13 13 13 C13.33 8.71 13.66 4.42 14 0 C14.33 0 14.66 0 15 0 C15 4.29 15 8.58 15 13 C18.3 13 21.6 13 25 13 C25 13.33 25 13.66 25 14 C21.37 14 17.74 14 14 14 C14 18.29 14 22.58 14 27 C13.67 27 13.34 27 13 27 C13 22.71 13 18.42 13 14 C8.71 14 4.42 14 0 14 C0 9.38 0 4.76 0 0 Z " fill="#6E6E6E" transform="translate(500,219)"/>
<path d="M0 0 C2.97 0 5.94 0 9 0 C9 0.33 9 0.66 9 1 C6.36 1 3.72 1 1 1 C1.33 4.96 1.66 8.92 2 13 C3.65 13 5.3 13 7 13 C7 13.33 7 13.66 7 14 C5.35 14 3.7 14 2 14 C2 18.62 2 23.24 2 28 C1.67 28 1.34 28 1 28 C0.11504503 18.62895894 -0.1170409 9.40228594 0 0 Z " fill="#504F4F" transform="translate(470,218)"/>
</svg>
